<svg xmlns="http://www.w3.org/2000/svg" viewBox="0 0 32 40" x="0px" y="0px"><title>tag, discount, price tag, shopping</title><g data-name="Layer 2"><path d="M28.83,16.1,15.9,3.17a3.006,3.006,0,0,0-2.62-.84L6.02,3.56A3.019,3.019,0,0,0,3.56,6.02L2.33,13.28a3.035,3.035,0,0,0,.84,2.62L16.1,28.83a2.994,2.994,0,0,0,4.24,0l8.49-8.49a2.994,2.994,0,0,0,0-4.24ZM7.52,7.52a1.461,1.461,0,0,1,2.05,0A1.45,1.45,0,0,1,7.52,9.57,1.461,1.461,0,0,1,7.52,7.52Z"/></g><text x="0" y="47" fill="#000000" font-size="5px" font-weight="bold" font-family="'Helvetica Neue', Helvetica, Arial-Unicode, Arial, Sans-serif">Created by Kiki Rizky</text><text x="0" y="52" fill="#000000" font-size="5px" font-weight="bold" font-family="'Helvetica Neue', Helvetica, Arial-Unicode, Arial, Sans-serif">from the Noun Project</text></svg>