<svg xmlns="http://www.w3.org/2000/svg" version="1.1" viewBox="-5.0 -10.0 110.0 135.0">
 <path d="m34.375 40.312h-27.344v27.344h27.344c-3.125-3.75-5.1562-8.4375-5.1562-13.75 0-5.1562 1.875-9.8438 5.1562-13.594zm15.625 0c-7.5 0-13.594 6.0938-13.594 13.594s6.0938 13.594 13.594 13.594 13.594-6.0938 13.594-13.594-6.0938-13.594-13.594-13.594zm8.9062 14.531c-0.46875 0-0.78125-0.3125-0.78125-0.78125 0-4.375-3.5938-8.125-8.125-8.125-0.46875 0-0.78125-0.3125-0.78125-0.78125s0.3125-0.78125 0.78125-0.78125c5.3125 0 9.6875 4.375 9.6875 9.6875 0 0.3125-0.46875 0.78125-0.78125 0.78125zm-8.9062-14.531c-7.5 0-13.594 6.0938-13.594 13.594s6.0938 13.594 13.594 13.594 13.594-6.0938 13.594-13.594-6.0938-13.594-13.594-13.594zm8.9062 14.531c-0.46875 0-0.78125-0.3125-0.78125-0.78125 0-4.375-3.5938-8.125-8.125-8.125-0.46875 0-0.78125-0.3125-0.78125-0.78125s0.3125-0.78125 0.78125-0.78125c5.3125 0 9.6875 4.375 9.6875 9.6875 0 0.3125-0.46875 0.78125-0.78125 0.78125zm0-17.812c-2.6562-1.4062-5.7812-2.1875-8.9062-2.1875-10.625 0-19.219 8.5938-19.219 19.219s8.5938 19.219 19.219 19.219 19.219-8.5938 19.219-19.219c0-7.5-4.0625-13.906-10.312-17.031zm-8.9062 32.188c-8.4375 0-15.156-6.875-15.156-15.156s6.875-15.156 15.156-15.156 15.156 6.875 15.156 15.156-6.7188 15.156-15.156 15.156zm0-28.906c-7.5 0-13.594 6.0938-13.594 13.594s6.0938 13.594 13.594 13.594 13.594-6.0938 13.594-13.594-6.0938-13.594-13.594-13.594zm8.9062 14.531c-0.46875 0-0.78125-0.3125-0.78125-0.78125 0-4.375-3.5938-8.125-8.125-8.125-0.46875 0-0.78125-0.3125-0.78125-0.78125s0.3125-0.78125 0.78125-0.78125c5.3125 0 9.6875 4.375 9.6875 9.6875 0 0.3125-0.46875 0.78125-0.78125 0.78125zm6.7188-14.531c3.125 3.5938 5.1562 8.4375 5.1562 13.75 0 5.1562-2.0312 10-5.1562 13.75h27.344v-27.5zm8.2812-22.344h-26.719l-1.25 6.4062h29.375zm-55.625 0v6.4062h11.562v-6.4062zm68.906 8.125h-76.094c-2.1875 0-4.0625 1.7188-4.0625 4.0625v8.75h28.75c3.75-3.4375 8.75-5.625 14.219-5.625s10.469 2.1875 14.219 5.625h28.75v-7.0312c0-3.2812-2.5-5.7812-5.7812-5.7812zm-22.969 43.125c-3.75 3.4375-8.75 5.625-14.219 5.625s-10.469-2.1875-14.219-5.625h-28.75v8.75c0 2.1875 1.875 4.0625 4.0625 4.0625h77.969c2.1875 0 4.0625-1.875 4.0625-4.0625v-8.75z"/>
<text x="0.0" y="117.5" font-size="5.0" font-weight="bold" font-family="Arbeit Regular, Helvetica, Arial-Unicode, Arial, Sans-serif" fill="#000000">Created by Dipa Fadillah</text><text x="0.0" y="122.5" font-size="5.0" font-weight="bold" font-family="Arbeit Regular, Helvetica, Arial-Unicode, Arial, Sans-serif" fill="#000000">from Noun Project</text></svg>