<svg width="90" height="90" viewBox="0 0 90 90" fill="none" xmlns="http://www.w3.org/2000/svg">
<g id="planet-earth 1" clip-path="url(#clip0_551_2431)">
<g id="Group">
<g id="XMLID_34_">
<g id="Group_2">
<path id="Vector" d="M24.276 50.1455C24.2807 50.1644 24.2854 50.181 24.2902 50.1999C24.742 52.0782 25.0992 54.8839 24.6758 58.5245C24.2239 62.4231 25.9769 66.2507 29.1965 68.4956L33.5871 71.5591C33.5871 71.5591 32.0802 83.0844 36.2626 89.1498V89.1522C15.5918 85.0833 0 66.8633 0 45.0003C0 32.2709 5.28716 20.774 13.7845 12.5913C10.4371 19.3286 7.03299 29.7302 11.8234 38.4404C14.0163 42.4265 17.4772 45.0121 21.3213 46.6728C22.7951 47.3068 23.8975 48.5889 24.276 50.1455Z" fill="#1EA6C6"/>
<path id="Vector_2" d="M45.0012 0.00146484C54.8091 0.00146484 63.8836 3.13828 71.2762 8.46802C71.2762 8.46802 67.4036 14.4081 67.5598 20.3363C67.5953 21.7533 68.7047 22.9125 70.117 23.0615C70.2164 23.071 70.3181 23.0781 70.4174 23.0781C71.4938 23.0781 72.4874 22.4678 72.9747 21.486C74.0108 19.409 76.7384 16.892 83.6247 21.9047L83.6271 21.9024C84.1404 22.7564 84.6254 23.6293 85.0796 24.5211C85.0796 24.5211 82.6761 25.0605 79.4565 24.663C78.5623 24.5519 77.6586 24.7695 76.9276 25.2947C76.419 25.6613 75.8347 26.1889 75.1865 26.8394C71.9007 30.1418 71.3566 37.0116 71.3566 37.0116C71.2927 38.4451 71.3566 40.0301 71.5861 41.7807C72.0994 45.6698 75.6644 48.4139 79.5464 47.8461C79.6032 47.839 79.6599 47.8296 79.7167 47.8225C82.5176 47.3872 85.0748 49.4997 85.2357 52.329C85.38 54.8815 85.9241 57.7746 87.36 60.2159H87.3624C81.1242 77.5796 64.5129 89.9991 45.0012 89.9991C42.0111 89.9991 39.0895 89.7081 36.2626 89.1522V89.1498C36.2626 89.1498 37.5282 87.9647 40.8496 84.5156L47.8471 77.0946C49.8673 74.8757 51.8828 72.5834 53.6357 70.4425C56.7513 66.6362 55.7672 60.9493 51.5635 58.3968C47.6389 56.0146 43.0141 52.9393 40.0358 50.0793C38.5384 48.6433 36.4779 47.9549 34.4151 48.1773C31.7656 48.4635 28.0113 49.0408 24.2902 50.1999C24.9289 43.8624 13.9525 38.2039 16.7912 33.2361C18.3289 30.5416 20.9121 30.4919 22.9537 31.01C24.5788 31.4216 26.2844 30.8302 27.3395 29.5268C29.8376 26.4444 35.2951 23.5559 39.2835 21.7297C41.8975 20.535 42.7421 17.2397 41.0246 14.938C35.7564 7.86478 28.2929 3.20688 28.2929 3.20688C33.4594 1.13933 39.0966 0.00146484 45.0012 0.00146484ZM46.8346 14.5477L52.2755 7.4508C52.2755 7.4508 49.9099 5.32174 41.3937 4.61206C39.6928 4.47012 46.1249 9.10673 46.8346 14.5477Z" fill="#1EA6C6"/>
<path id="Vector_3" d="M83.6271 21.9021L83.6247 21.9045C76.7384 16.8917 74.0108 19.4088 72.9747 21.4858C72.4874 22.4675 71.4938 23.0778 70.4174 23.0778C70.3181 23.0778 70.2164 23.0707 70.117 23.0613C68.7047 22.9122 67.5953 21.7531 67.5598 20.3361C67.4036 14.4078 71.2762 8.46777 71.2762 8.46777C76.2511 12.0493 80.4642 16.6244 83.6271 21.9021Z" fill="#F7CF52"/>
<path id="Vector_4" d="M90.0001 45.0002C90.0001 50.3394 89.0704 55.4633 87.3624 60.2158H87.3601C85.9241 57.7745 85.38 54.8814 85.2357 52.3289C85.0749 49.4996 82.5176 47.3871 79.7167 47.8223C79.66 47.8294 79.6032 47.8389 79.5464 47.846C75.6644 48.4138 72.0994 45.6696 71.5861 41.7806C71.3566 40.03 71.2928 38.445 71.3566 37.0115C71.3566 37.0115 71.9007 30.1417 75.1866 26.8393C75.8348 26.1888 76.4191 25.6612 76.9277 25.2946C77.6587 24.7694 78.5623 24.5517 79.4565 24.6629C82.6761 25.0604 85.0796 24.521 85.0796 24.521C88.2259 30.6645 90.0001 37.6242 90.0001 45.0002Z" fill="#F7CF52"/>
<path id="Vector_5" d="M52.2755 7.45081L46.8345 14.5477C46.1249 9.10674 39.6927 4.47012 41.3936 4.61206C49.9099 5.32175 52.2755 7.45081 52.2755 7.45081Z" fill="#F7CF52"/>
<path id="Vector_6" d="M41.0247 14.9376C42.7421 17.2394 41.8976 20.5347 39.2836 21.7293C35.2951 23.5556 29.8377 26.444 27.3396 29.5264C26.2845 30.8299 24.5789 31.4213 22.9537 31.0097C20.9122 30.4916 18.3289 30.5413 16.7913 33.2357C13.9525 38.2035 24.929 43.8621 24.2903 50.1996C24.2856 50.1806 24.2808 50.1641 24.2761 50.1452C23.8976 48.5886 22.7952 47.3064 21.3214 46.6724C17.4773 45.0118 14.0164 42.4261 11.8235 38.4401C7.03309 29.7299 10.4372 19.3282 13.7846 12.591C17.9339 8.59069 22.852 5.38291 28.2929 3.20654C28.2929 3.20654 35.7564 7.86445 41.0247 14.9376Z" fill="#F7CF52"/>
<path id="Vector_7" d="M51.5635 58.3967C55.7672 60.9492 56.7513 66.6362 53.6358 70.4425C51.8829 72.5833 49.8674 74.8756 47.8471 77.0946L40.8496 84.5155C37.5283 87.9646 36.2627 89.1498 36.2627 89.1498C32.0803 83.0843 33.5872 71.559 33.5872 71.559L29.1966 68.4956C25.977 66.2506 24.224 62.423 24.6759 58.5245C25.0993 54.8838 24.7421 52.0782 24.2903 50.1999C28.0114 49.0407 31.7656 48.4635 34.4151 48.1773C36.478 47.9549 38.5384 48.6433 40.0358 50.0792C43.0142 52.9392 47.6389 56.0145 51.5635 58.3967Z" fill="#F7CF52"/>
</g>
</g>
<path id="Vector_8" opacity="0.3" d="M45.0012 0.00146484C46.3732 0.00146484 47.7311 0.062971 49.07 0.183618C26.1354 2.25117 8.16139 21.5262 8.16139 45.0003C8.16139 68.4791 26.1425 87.7565 49.0842 89.8169C47.7406 89.9376 46.378 89.9991 45.0012 89.9991C20.148 89.9991 0 69.8535 0 45.0003C0 20.1471 20.148 0.00146484 45.0012 0.00146484Z" fill="#808080"/>
</g>
</g>
<defs>
<clipPath id="clip0_551_2431">
<rect width="90" height="90" fill="white"/>
</clipPath>
</defs>
</svg>
