<svg width="74" height="74" viewBox="0 0 74 74" fill="none" xmlns="http://www.w3.org/2000/svg">
<g id="traffic-cone 1">
<path id="Vector" d="M67.6208 74H6.37944C5.67485 74 5.10352 73.4287 5.10352 72.7241V70.1724C5.10352 69.4678 5.67485 68.8965 6.37944 68.8965H67.6208C68.3254 68.8965 68.8967 69.4678 68.8967 70.1724V72.7241C68.8967 73.4287 68.3254 74 67.6208 74Z" fill="#FFA055"/>
<path id="Vector_2" d="M38.9222 0H35.0776C33.9475 0 32.952 0.743324 32.631 1.82688L12.7585 68.8966H61.2413L41.3688 1.82688C41.0478 0.743324 40.0523 0 38.9222 0Z" fill="#FFB45A"/>
<g id="Group">
<path id="Vector_3" d="M24.8557 28.0688H49.1442L46.12 17.8618H27.8799L24.8557 28.0688Z" fill="#FFEBBE"/>
<path id="Vector_4" d="M17.2949 53.5858H56.7051L53.6808 43.3789H20.3192L17.2949 53.5858Z" fill="#FFEBBE"/>
</g>
<g id="Group_2">
<path id="Vector_5" d="M31.6602 5.10346H42.3396L41.5835 2.55176H32.4162L31.6602 5.10346Z" fill="#FFA055"/>
<path id="Vector_6" d="M30.1482 10.207H43.8518L43.0957 7.65527H30.9042L30.1482 10.207Z" fill="#FFA055"/>
</g>
</g>
</svg>
